<svg width="30" height="30" viewBox="0 0 30 30" fill="none" xmlns="http://www.w3.org/2000/svg">
<path d="M18.6375 8.3875C18.5219 8.27162 18.3845 8.17968 18.2333 8.11696C18.0821 8.05423 17.92 8.02194 17.7563 8.02194C17.5926 8.02194 17.4305 8.05423 17.2792 8.11696C17.128 8.17968 16.9907 8.27162 16.875 8.3875L11.1375 14.125C11.0216 14.2406 10.9297 14.378 10.867 14.5292C10.8043 14.6804 10.772 14.8425 10.772 15.0062C10.772 15.17 10.8043 15.3321 10.867 15.4833C10.9297 15.6345 11.0216 15.7719 11.1375 15.8875L16.875 21.625C16.9908 21.7407 17.1281 21.8325 17.2793 21.8952C17.4306 21.9578 17.5926 21.99 17.7563 21.99C17.9199 21.99 18.082 21.9578 18.2332 21.8952C18.3844 21.8325 18.5218 21.7407 18.6375 21.625C18.7533 21.5093 18.8451 21.3719 18.9077 21.2207C18.9703 21.0695 19.0026 20.9074 19.0026 20.7437C19.0026 20.5801 18.9703 20.418 18.9077 20.2668C18.8451 20.1156 18.7533 19.9782 18.6375 19.8625L13.7875 15L18.6375 10.15C19.1125 9.6625 19.1125 8.8625 18.6375 8.3875Z" fill="#FFB84C"/>
</svg>
