<svg width="169" height="104" viewBox="0 0 169 104" fill="none" xmlns="http://www.w3.org/2000/svg">
<g filter="url(#filter0_d_17_107)">
<circle cx="56.5" cy="12.5" r="7.5" fill="#FFB84C"/>
<circle cx="56.5" cy="12.5" r="10" stroke="white" stroke-width="5"/>
</g>
<g filter="url(#filter1_d_17_107)">
<circle cx="90.5" cy="12.5" r="7.5" fill="#FFB84C"/>
<circle cx="90.5" cy="12.5" r="10" stroke="white" stroke-width="5"/>
</g>
<g filter="url(#filter2_d_17_107)">
<path d="M10.48 88.72C8.08 88.72 6.37333 88.3733 5.36 87.68C4.34667 86.9333 3.73333 86 3.52 84.88C3.30667 83.7067 3.2 82.5333 3.2 81.36V40C3.2 38.8267 3.30667 37.68 3.52 36.56C3.73333 35.44 4.34667 34.5333 5.36 33.84C6.37333 33.0933 8.10667 32.72 10.56 32.72C13.0133 32.72 14.72 33.0933 15.68 33.84C16.6933 34.5333 17.3067 35.44 17.52 36.56C17.7333 37.68 17.84 38.8533 17.84 40.08V51.12L31.76 35.2C32.9867 33.8667 34.1333 32.9333 35.2 32.4C36.2667 31.8667 37.36 31.76 38.48 32.08C39.6 32.4 40.8267 33.2 42.16 34.48C44.3467 36.4533 45.4667 38.1867 45.52 39.68C45.5733 41.1733 44.6933 42.88 42.88 44.8L27.2 60.8L42.96 76.56C44.9333 78.5333 45.84 80.32 45.68 81.92C45.5733 83.4667 44.4267 85.1467 42.24 86.96C40.64 88.24 39.28 89.04 38.16 89.36C37.04 89.68 36 89.5467 35.04 88.96C34.08 88.4267 33.0133 87.4667 31.84 86.08L17.84 70.16V81.44C17.84 82.6133 17.7333 83.76 17.52 84.88C17.3067 86 16.6933 86.9333 15.68 87.68C14.6667 88.3733 12.9333 88.72 10.48 88.72ZM73.8331 89.6C69.7798 89.6 66.2065 88.8 63.1131 87.2C60.0731 85.5467 57.5131 83.3867 55.4331 80.72C53.3531 78.0533 51.7798 75.12 50.7131 71.92C49.6998 68.72 49.1931 65.5467 49.1931 62.4V40C49.1931 38.7733 49.2998 37.6 49.5131 36.48C49.7265 35.36 50.3398 34.4533 51.3531 33.76C52.3665 33.0133 54.0998 32.64 56.5531 32.64C59.0065 32.64 60.7398 33.0133 61.7531 33.76C62.7665 34.4533 63.3798 35.36 63.5931 36.48C63.8065 37.6 63.9131 38.8 63.9131 40.08V62.4C63.9131 64.16 64.2065 66 64.7931 67.92C65.3798 69.84 66.3931 71.4933 67.8331 72.88C69.3265 74.2133 71.4065 74.88 74.0731 74.88C76.0998 74.88 77.8598 74.3733 79.3531 73.36C80.8465 72.2933 81.9931 70.8267 82.7931 68.96C83.6465 67.04 84.0731 64.8267 84.0731 62.32V39.6C84.0731 38.4267 84.1798 37.3333 84.3931 36.32C84.6598 35.2533 85.2998 34.3733 86.3131 33.68C87.3265 32.9867 89.0331 32.64 91.4331 32.64C93.8865 32.64 95.5931 33.0133 96.5531 33.76C97.5665 34.5067 98.1798 35.44 98.3931 36.56C98.6065 37.68 98.7131 38.8533 98.7131 40.08V62.56C98.7131 65.76 98.1798 68.96 97.1131 72.16C96.0465 75.3067 94.4465 78.2133 92.3131 80.88C90.2331 83.4933 87.6465 85.6 84.5531 87.2C81.4598 88.8 77.8865 89.6 73.8331 89.6ZM110.458 88.72C108.058 88.72 106.351 88.3733 105.338 87.68C104.324 86.9333 103.711 86 103.498 84.88C103.284 83.7067 103.178 82.5333 103.178 81.36V40C103.178 38.8267 103.284 37.68 103.498 36.56C103.711 35.44 104.324 34.5333 105.338 33.84C106.351 33.0933 108.084 32.72 110.538 32.72C112.991 32.72 114.698 33.0933 115.658 33.84C116.671 34.5333 117.284 35.44 117.498 36.56C117.711 37.68 117.818 38.8533 117.818 40.08V81.44C117.818 82.6133 117.711 83.76 117.498 84.88C117.284 86 116.671 86.9333 115.658 87.68C114.644 88.3733 112.911 88.72 110.458 88.72ZM141.758 89.52C138.505 89.52 135.731 89.12 133.438 88.32C131.198 87.52 129.358 86.5867 127.918 85.52C126.478 84.4 125.385 83.3867 124.638 82.48C123.891 81.5733 123.438 81.0133 123.278 80.8C122.211 79.4667 121.545 78.2667 121.278 77.2C121.065 76.1333 121.225 75.0667 121.758 74C122.345 72.9333 123.305 71.76 124.638 70.48C125.865 69.3067 127.065 68.6667 128.238 68.56C129.411 68.4 130.558 68.64 131.678 69.28C132.851 69.92 133.971 70.8533 135.038 72.08C136.318 73.52 137.411 74.5067 138.318 75.04C139.225 75.52 140.265 75.76 141.438 75.76C142.878 75.76 144.051 75.6 144.958 75.28C145.865 74.9067 146.531 74.3733 146.958 73.68C147.385 72.9333 147.598 72 147.598 70.88C147.598 69.9733 147.145 69.28 146.238 68.8C145.331 68.2667 144.131 67.8133 142.638 67.44C141.198 67.0667 139.571 66.6667 137.758 66.24C135.945 65.76 134.158 65.1467 132.398 64.4C131.331 63.9733 130.291 63.44 129.278 62.8C128.265 62.16 127.305 61.44 126.398 60.64C125.545 59.7867 124.798 58.8 124.158 57.68C123.518 56.5067 123.011 55.2 122.638 53.76C122.318 52.32 122.158 50.6933 122.158 48.88C122.158 45.6267 122.958 42.72 124.558 40.16C126.211 37.6 128.451 35.5733 131.278 34.08C134.158 32.5867 137.411 31.84 141.038 31.84C143.651 31.84 145.891 32.0533 147.758 32.48C149.625 32.9067 151.145 33.4133 152.318 34C153.545 34.5867 154.478 35.1467 155.118 35.68C155.758 36.16 156.158 36.48 156.318 36.64C158.078 38.24 159.038 39.6267 159.198 40.8C159.358 41.92 158.718 43.5467 157.278 45.68C155.678 47.9733 154.105 49.28 152.558 49.6C151.011 49.8667 149.225 49.36 147.198 48.08C146.771 47.76 146.345 47.4133 145.918 47.04C145.491 46.6133 144.905 46.2667 144.158 46C143.465 45.68 142.398 45.52 140.958 45.52C140.425 45.52 139.891 45.6267 139.358 45.84C138.825 46 138.371 46.24 137.998 46.56C137.625 46.8267 137.305 47.1733 137.038 47.6C136.825 48.0267 136.718 48.48 136.718 48.96C136.718 50.08 137.145 50.96 137.998 51.6C138.851 52.1867 139.971 52.64 141.358 52.96C142.798 53.28 144.371 53.6 146.078 53.92C147.785 54.24 149.518 54.6667 151.278 55.2C152.718 55.68 154.105 56.2933 155.438 57.04C156.771 57.7867 157.945 58.7467 158.958 59.92C159.971 61.0933 160.771 62.56 161.358 64.32C161.998 66.0267 162.318 68.1333 162.318 70.64C162.318 74.1067 161.651 77.0667 160.318 79.52C158.985 81.92 157.251 83.8667 155.118 85.36C153.038 86.8 150.798 87.84 148.398 88.48C146.051 89.1733 143.838 89.52 141.758 89.52Z" fill="#FFB84C"/>
<path d="M5.36 87.68L2.39401 91.7053L2.46441 91.7572L2.53658 91.8065L5.36 87.68ZM3.52 84.88L-1.39935 85.7744L-1.39561 85.795L-1.39169 85.8156L3.52 84.88ZM3.52 36.56L8.43169 37.4956V37.4956L3.52 36.56ZM5.36 33.84L8.18342 37.9665L8.25559 37.9172L8.326 37.8653L5.36 33.84ZM15.68 33.84L12.6103 37.7868L12.7307 37.8804L12.8566 37.9665L15.68 33.84ZM17.52 36.56L22.4317 35.6244L17.52 36.56ZM17.84 51.12H12.84V64.4344L21.6041 54.4112L17.84 51.12ZM31.76 35.2L28.0803 31.8147L28.0375 31.8612L27.9959 31.9088L31.76 35.2ZM35.2 32.4L37.4361 36.8721L37.4361 36.8721L35.2 32.4ZM38.48 32.08L39.8536 27.2724L39.8536 27.2724L38.48 32.08ZM42.16 34.48L38.6973 38.0869L38.7529 38.1403L38.8102 38.192L42.16 34.48ZM45.52 39.68L40.5232 39.8585V39.8585L45.52 39.68ZM42.88 44.8L46.4511 48.2996L46.4834 48.2667L46.5151 48.2331L42.88 44.8ZM27.2 60.8L23.6289 57.3004L20.1645 60.8355L23.6645 64.3355L27.2 60.8ZM45.68 81.92L40.7048 81.4225L40.6972 81.4991L40.6919 81.576L45.68 81.92ZM42.24 86.96L45.3635 90.8643L45.3978 90.8369L45.4317 90.8088L42.24 86.96ZM38.16 89.36L36.7864 84.5524L38.16 89.36ZM35.04 88.96L37.6473 84.6936L37.5588 84.6395L37.4682 84.5892L35.04 88.96ZM31.84 86.08L35.6569 82.8503L35.6262 82.8139L35.5947 82.7781L31.84 86.08ZM17.84 70.16L21.5947 66.8581L12.84 56.9028V70.16H17.84ZM17.52 84.88L22.4317 85.8156L17.52 84.88ZM15.68 87.68L18.5034 91.8065L18.5756 91.7572L18.646 91.7053L15.68 87.68ZM10.48 83.72C9.49868 83.72 8.82444 83.6472 8.3953 83.5601C7.94331 83.4683 7.95895 83.3999 8.18342 83.5535L2.53658 91.8065C4.86206 93.3977 7.87828 93.72 10.48 93.72V83.72ZM8.326 83.6547C8.23602 83.5884 8.26138 83.5871 8.31853 83.6741C8.34549 83.7151 8.37168 83.7642 8.39322 83.8177C8.41466 83.8709 8.42615 83.9153 8.43169 83.9444L-1.39169 85.8156C-0.917151 88.3069 0.480307 90.2952 2.39401 91.7053L8.326 83.6547ZM8.43935 83.9856C8.27879 83.1025 8.2 82.2285 8.2 81.36H-1.8C-1.8 82.8382 -1.66546 84.3108 -1.39935 85.7744L8.43935 83.9856ZM8.2 81.36V40H-1.8V81.36H8.2ZM8.2 40C8.2 39.1315 8.27879 38.2983 8.43169 37.4956L-1.39169 35.6244C-1.66545 37.0617 -1.8 38.5219 -1.8 40H8.2ZM8.43169 37.4956C8.41654 37.5751 8.37155 37.7083 8.28142 37.8415C8.19564 37.9683 8.1326 38.0013 8.18342 37.9665L2.53658 29.7135C0.525524 31.0894 -0.910936 33.1005 -1.39169 35.6244L8.43169 37.4956ZM8.326 37.8653C8.0803 38.0463 8.03454 37.9823 8.47278 37.8879C8.89021 37.798 9.56312 37.72 10.56 37.72V27.72C7.89579 27.72 4.76546 28.0673 2.39401 29.8147L8.326 37.8653ZM10.56 37.72C11.5595 37.72 12.2182 37.7985 12.6115 37.8845C13.0313 37.9763 12.9183 38.0263 12.6103 37.7868L18.7497 29.8932C16.3801 28.0502 13.1792 27.72 10.56 27.72V37.72ZM12.8566 37.9665C12.9074 38.0013 12.8444 37.9683 12.7586 37.8415C12.6684 37.7083 12.6235 37.5751 12.6083 37.4956L22.4317 35.6244C21.9509 33.1005 20.5145 31.0894 18.5034 29.7135L12.8566 37.9665ZM12.6083 37.4956C12.7587 38.2849 12.84 39.1437 12.84 40.08H22.84C22.84 38.5629 22.708 37.0751 22.4317 35.6244L12.6083 37.4956ZM12.84 40.08V51.12H22.84V40.08H12.84ZM21.6041 54.4112L35.5241 38.4912L27.9959 31.9088L14.0759 47.8288L21.6041 54.4112ZM35.4397 38.5853C36.4467 37.4907 37.1184 37.031 37.4361 36.8721L32.9639 27.9279C31.1483 28.8357 29.5267 30.2426 28.0803 31.8147L35.4397 38.5853ZM37.4361 36.8721C37.4687 36.8558 37.4186 36.8853 37.3055 36.8964C37.254 36.9014 37.2057 36.9008 37.1653 36.8969C37.1255 36.8931 37.1047 36.8871 37.1064 36.8876L39.8536 27.2724C37.4995 26.5998 35.12 26.8498 32.9639 27.9279L37.4361 36.8721ZM37.1064 36.8876C37.0802 36.8801 37.2117 36.9144 37.5087 37.108C37.8032 37.3001 38.2002 37.6097 38.6973 38.0869L45.6227 30.8731C44.0115 29.3263 42.0867 27.9104 39.8536 27.2724L37.1064 36.8876ZM38.8102 38.192C39.7041 38.9987 40.1961 39.5954 40.4404 39.9736C40.6895 40.3591 40.5387 40.2935 40.5232 39.8585L50.5168 39.5015C50.3855 35.8257 47.8445 32.8749 45.5098 30.768L38.8102 38.192ZM40.5232 39.8585C40.5117 39.5374 40.6124 39.4853 40.456 39.7886C40.2942 40.1022 39.9411 40.6297 39.2449 41.3669L46.5151 48.2331C48.5965 46.0292 50.6435 43.0498 50.5168 39.5015L40.5232 39.8585ZM39.3089 41.3004L23.6289 57.3004L30.7711 64.2996L46.4511 48.2996L39.3089 41.3004ZM23.6645 64.3355L39.4245 80.0955L46.4955 73.0245L30.7355 57.2645L23.6645 64.3355ZM39.4245 80.0955C40.1732 80.8442 40.5199 81.3641 40.6613 81.6426C40.7885 81.8934 40.6688 81.7822 40.7048 81.4225L50.6552 82.4175C51.0448 78.5217 48.7817 75.3106 46.4955 73.0245L39.4245 80.0955ZM40.6919 81.576C40.7159 81.2276 40.8348 81.1923 40.6103 81.5213C40.381 81.8571 39.913 82.3941 39.0483 83.1112L45.4317 90.8088C47.8719 88.7852 50.4141 85.9471 50.6682 82.264L40.6919 81.576ZM39.1165 83.0557C37.7009 84.1881 36.9578 84.5034 36.7864 84.5524L39.5336 94.1676C41.6022 93.5766 43.5791 92.2919 45.3635 90.8643L39.1165 83.0557ZM36.7864 84.5524C36.8064 84.5467 36.9516 84.5118 37.1758 84.5406C37.4044 84.5699 37.5708 84.6469 37.6473 84.6936L32.4328 93.2264C34.6326 94.5707 37.1231 94.8563 39.5336 94.1676L36.7864 84.5524ZM37.4682 84.5892C37.2699 84.479 36.6612 84.0372 35.6569 82.8503L28.0231 89.3097C29.3654 90.8961 30.8901 92.3743 32.6118 93.3308L37.4682 84.5892ZM35.5947 82.7781L21.5947 66.8581L14.0853 73.4619L28.0853 89.3819L35.5947 82.7781ZM12.84 70.16V81.44H22.84V70.16H12.84ZM12.84 81.44C12.84 82.3085 12.7612 83.1417 12.6083 83.9444L22.4317 85.8156C22.7055 84.3783 22.84 82.9181 22.84 81.44H12.84ZM12.6083 83.9444C12.6139 83.9153 12.6253 83.8709 12.6468 83.8177C12.6683 83.7642 12.6945 83.7151 12.7215 83.6741C12.7786 83.5871 12.804 83.5884 12.714 83.6547L18.646 91.7053C20.5597 90.2952 21.9572 88.3069 22.4317 85.8156L12.6083 83.9444ZM12.8566 83.5535C13.0935 83.3914 13.1131 83.4624 12.6394 83.5571C12.1927 83.6464 11.4939 83.72 10.48 83.72V93.72C13.1074 93.72 16.1664 93.4056 18.5034 91.8065L12.8566 83.5535ZM63.1131 87.2L60.7243 91.5924L60.7699 91.6172L60.816 91.6411L63.1131 87.2ZM55.4331 80.72L59.3756 77.6448V77.6448L55.4331 80.72ZM50.7131 71.92L45.9464 73.4295L45.9578 73.4654L45.9697 73.5011L50.7131 71.92ZM49.5131 36.48L44.6014 35.5444V35.5444L49.5131 36.48ZM51.3531 33.76L54.1765 37.8865L54.2487 37.8372L54.3191 37.7853L51.3531 33.76ZM61.7531 33.76L58.7871 37.7853L58.8575 37.8372L58.9297 37.8865L61.7531 33.76ZM63.5931 36.48L58.6814 37.4156L63.5931 36.48ZM64.7931 67.92L60.0114 69.3811L64.7931 67.92ZM67.8331 72.88L64.3649 76.4816L64.4328 76.5469L64.503 76.6097L67.8331 72.88ZM79.3531 73.36L82.1606 77.4974L82.2104 77.4636L82.2593 77.4287L79.3531 73.36ZM82.7931 68.96L78.2241 66.9293L78.2105 66.9598L78.1974 66.9904L82.7931 68.96ZM84.3931 36.32L79.5424 35.1073L79.5197 35.1982L79.5004 35.2899L84.3931 36.32ZM86.3131 33.68L83.4897 29.5535V29.5535L86.3131 33.68ZM96.5531 33.76L93.4834 37.7068L93.5348 37.7467L93.5871 37.7853L96.5531 33.76ZM98.3931 36.56L93.4814 37.4955V37.4956L98.3931 36.56ZM97.1131 72.16L101.848 73.7652L101.853 73.7532L101.857 73.7411L97.1131 72.16ZM92.3131 80.88L88.4088 77.7565L88.401 77.7663L92.3131 80.88ZM84.5531 87.2L86.8502 91.6411L84.5531 87.2ZM73.8331 84.6C70.448 84.6 67.6855 83.9358 65.4102 82.7589L60.816 91.6411C64.7274 93.6642 69.1116 94.6 73.8331 94.6V84.6ZM65.502 82.8076C63.0504 81.4743 61.0237 79.7577 59.3756 77.6448L51.4906 83.7952C54.0026 87.0156 57.0959 89.6191 60.7243 91.5924L65.502 82.8076ZM59.3756 77.6448C57.6448 75.4258 56.3427 72.9975 55.4565 70.3389L45.9697 73.5011C47.2168 77.2425 49.0615 80.6809 51.4906 83.7952L59.3756 77.6448ZM55.4798 70.4105C54.6108 67.6662 54.1931 65.0014 54.1931 62.4H44.1931C44.1931 66.0919 44.7888 69.7738 45.9464 73.4295L55.4798 70.4105ZM54.1931 62.4V40H44.1931V62.4H54.1931ZM54.1931 40C54.1931 39.0637 54.2745 38.2049 54.4248 37.4156L44.6014 35.5444C44.3251 36.9951 44.1931 38.4829 44.1931 40H54.1931ZM54.4248 37.4156C54.4097 37.4951 54.3647 37.6283 54.2745 37.7615C54.1888 37.8883 54.1257 37.9213 54.1765 37.8865L48.5297 29.6335C46.5187 31.0094 45.0822 33.0205 44.6014 35.5444L54.4248 37.4156ZM54.3191 37.7853C54.0734 37.9663 54.0277 37.9023 54.4659 37.8079C54.8833 37.718 55.5562 37.64 56.5531 37.64V27.64C53.8889 27.64 50.7586 27.9873 48.3871 29.7347L54.3191 37.7853ZM56.5531 37.64C57.55 37.64 58.2229 37.718 58.6403 37.8079C59.0786 37.9023 59.0328 37.9663 58.7871 37.7853L64.7191 29.7347C62.3477 27.9873 59.2173 27.64 56.5531 27.64V37.64ZM58.9297 37.8865C58.9805 37.9213 58.9175 37.8883 58.8317 37.7615C58.7416 37.6283 58.6966 37.4951 58.6814 37.4156L68.5048 35.5444C68.0241 33.0205 66.5876 31.0094 64.5765 29.6335L58.9297 37.8865ZM58.6814 37.4156C58.8294 38.1923 58.9131 39.0763 58.9131 40.08H68.9131C68.9131 38.5236 68.7835 37.0077 68.5048 35.5444L58.6814 37.4156ZM58.9131 40.08V62.4H68.9131V40.08H58.9131ZM58.9131 62.4C58.9131 64.7191 59.3 67.0529 60.0114 69.3811L69.5749 66.4589C69.1129 64.9471 68.9131 63.6009 68.9131 62.4H58.9131ZM60.0114 69.3811C60.8455 72.1111 62.3094 74.5022 64.3649 76.4816L71.3013 69.2784C70.4769 68.4845 69.914 67.5689 69.5749 66.4589L60.0114 69.3811ZM64.503 76.6097C67.1808 79.0005 70.5926 79.88 74.0731 79.88V69.88C72.2204 69.88 71.4721 69.4261 71.1632 69.1503L64.503 76.6097ZM74.0731 79.88C76.9732 79.88 79.7392 79.1405 82.1606 77.4974L76.5456 69.2226C75.9804 69.6062 75.2264 69.88 74.0731 69.88V79.88ZM82.2593 77.4287C84.5751 75.7746 86.268 73.545 87.3889 70.9296L78.1974 66.9904C77.7183 68.1084 77.1179 68.8121 76.4469 69.2913L82.2593 77.4287ZM87.3622 70.9907C88.5491 68.3202 89.0731 65.3934 89.0731 62.32H79.0731C79.0731 64.26 78.7439 65.7598 78.2241 66.9293L87.3622 70.9907ZM89.0731 62.32V39.6H79.0731V62.32H89.0731ZM89.0731 39.6C89.0731 38.7279 89.1525 37.9834 89.2859 37.3501L79.5004 35.2899C79.207 36.6833 79.0731 38.1254 79.0731 39.6H89.0731ZM89.2438 37.5327C89.2351 37.5675 89.2199 37.6139 89.1956 37.666C89.1713 37.7183 89.1435 37.7641 89.1168 37.8009C89.0606 37.8782 89.0415 37.8716 89.1366 37.8065L83.4897 29.5535C81.5936 30.8508 80.1409 32.7133 79.5424 35.1073L89.2438 37.5327ZM89.1365 37.8065C88.9121 37.9601 88.8964 37.8917 89.3484 37.7999C89.7776 37.7128 90.4518 37.64 91.4331 37.64V27.64C88.8314 27.64 85.8152 27.9623 83.4897 29.5535L89.1365 37.8065ZM91.4331 37.64C92.4326 37.64 93.0913 37.7185 93.4846 37.8045C93.9044 37.8963 93.7915 37.9463 93.4834 37.7068L99.6228 29.8132C97.2533 27.9702 94.0524 27.64 91.4331 27.64V37.64ZM93.5871 37.7853C93.6771 37.8516 93.6517 37.8529 93.5946 37.7659C93.5676 37.7249 93.5414 37.6758 93.5199 37.6223C93.4985 37.5691 93.487 37.5247 93.4814 37.4955L103.305 35.6245C102.83 33.1331 101.433 31.1448 99.5191 29.7347L93.5871 37.7853ZM93.4814 37.4956C93.6318 38.2849 93.7131 39.1437 93.7131 40.08H103.713C103.713 38.5629 103.581 37.0751 103.305 35.6244L93.4814 37.4956ZM93.7131 40.08V62.56H103.713V40.08H93.7131ZM93.7131 62.56C93.7131 65.1941 93.2757 67.861 92.3697 70.5789L101.857 73.7411C103.084 70.059 103.713 66.3259 103.713 62.56H93.7131ZM92.3778 70.5548C91.503 73.1356 90.1892 75.531 88.4088 77.7565L96.2175 84.0035C98.7037 80.8957 100.59 77.4778 101.848 73.7652L92.3778 70.5548ZM88.401 77.7663C86.7786 79.8047 84.7508 81.4685 82.256 82.7589L86.8502 91.6411C90.5421 89.7315 93.6877 87.1819 96.2253 83.9937L88.401 77.7663ZM82.256 82.7589C79.9807 83.9358 77.2183 84.6 73.8331 84.6V94.6C78.5546 94.6 82.9389 93.6642 86.8502 91.6411L82.256 82.7589ZM105.338 87.68L102.372 91.7053L102.442 91.7572L102.514 91.8065L105.338 87.68ZM103.497 84.88L98.5781 85.7744L98.5819 85.795L98.5858 85.8156L103.497 84.88ZM103.497 36.56L108.409 37.4956V37.4956L103.497 36.56ZM105.338 33.84L108.161 37.9665L108.233 37.9172L108.303 37.8653L105.338 33.84ZM115.658 33.84L112.588 37.7868L112.708 37.8804L112.834 37.9665L115.658 33.84ZM117.497 36.56L122.409 35.6244L117.497 36.56ZM117.497 84.88L122.409 85.8156L117.497 84.88ZM115.658 87.68L118.481 91.8065L118.553 91.7572L118.623 91.7053L115.658 87.68ZM110.457 83.72C109.476 83.72 108.802 83.6472 108.373 83.5601C107.921 83.4683 107.936 83.3999 108.161 83.5535L102.514 91.8065C104.84 93.3977 107.856 93.72 110.457 93.72V83.72ZM108.303 83.6547C108.214 83.5884 108.239 83.5871 108.296 83.6741C108.323 83.7151 108.349 83.7642 108.371 83.8177C108.392 83.8709 108.404 83.9153 108.409 83.9444L98.5858 85.8156C99.0603 88.3069 100.458 90.2952 102.372 91.7053L108.303 83.6547ZM108.417 83.9856C108.256 83.1025 108.177 82.2285 108.177 81.36H98.1775C98.1775 82.8382 98.312 84.3108 98.5781 85.7744L108.417 83.9856ZM108.177 81.36V40H98.1775V81.36H108.177ZM108.177 40C108.177 39.1315 108.256 38.2983 108.409 37.4956L98.5858 35.6244C98.312 37.0617 98.1775 38.5219 98.1775 40H108.177ZM108.409 37.4956C108.394 37.5751 108.349 37.7083 108.259 37.8415C108.173 37.9683 108.11 38.0013 108.161 37.9665L102.514 29.7135C100.503 31.0894 99.0666 33.1005 98.5858 35.6244L108.409 37.4956ZM108.303 37.8653C108.058 38.0463 108.012 37.9823 108.45 37.8879C108.868 37.798 109.541 37.72 110.537 37.72V27.72C107.873 27.72 104.743 28.0673 102.372 29.8147L108.303 37.8653ZM110.537 37.72C111.537 37.72 112.196 37.7985 112.589 37.8845C113.009 37.9763 112.896 38.0263 112.588 37.7868L118.727 29.8932C116.358 28.0502 113.157 27.72 110.537 27.72V37.72ZM112.834 37.9665C112.885 38.0013 112.822 37.9683 112.736 37.8415C112.646 37.7083 112.601 37.5751 112.586 37.4956L122.409 35.6244C121.928 33.1005 120.492 31.0894 118.481 29.7135L112.834 37.9665ZM112.586 37.4956C112.736 38.2849 112.817 39.1437 112.817 40.08H122.817C122.817 38.5629 122.686 37.0751 122.409 35.6244L112.586 37.4956ZM112.817 40.08V81.44H122.817V40.08H112.817ZM112.817 81.44C112.817 82.3085 112.739 83.1417 112.586 83.9444L122.409 85.8156C122.683 84.3783 122.817 82.9181 122.817 81.44H112.817ZM112.586 83.9444C112.591 83.9153 112.603 83.8709 112.624 83.8177C112.646 83.7642 112.672 83.7151 112.699 83.6741C112.756 83.5871 112.781 83.5884 112.692 83.6547L118.623 91.7053C120.537 90.2952 121.935 88.3069 122.409 85.8156L112.586 83.9444ZM112.834 83.5535C113.071 83.3914 113.091 83.4624 112.617 83.5571C112.17 83.6464 111.471 83.72 110.457 83.72V93.72C113.085 93.72 116.144 93.4056 118.481 91.8065L112.834 83.5535ZM133.438 88.32L131.756 93.0287L131.774 93.0349L131.791 93.041L133.438 88.32ZM127.918 85.52L124.848 89.4668L124.895 89.5028L124.942 89.5378L127.918 85.52ZM124.638 82.48L128.498 79.3015L124.638 82.48ZM123.278 80.8L127.278 77.8L127.231 77.7375L127.182 77.6765L123.278 80.8ZM121.278 77.2L116.375 78.1806L116.399 78.2972L116.427 78.4127L121.278 77.2ZM121.758 74L117.377 71.5904L117.33 71.6763L117.286 71.7639L121.758 74ZM124.638 70.48L121.182 66.8668L121.175 66.8731L124.638 70.48ZM128.238 68.56L128.691 73.5395L128.803 73.5293L128.914 73.5141L128.238 68.56ZM131.678 69.28L129.197 73.6212L129.24 73.6458L129.284 73.6695L131.678 69.28ZM135.038 72.08L131.265 75.3609L131.283 75.3815L131.301 75.4018L135.038 72.08ZM138.318 75.04L135.783 79.3497L135.88 79.4065L135.979 79.4589L138.318 75.04ZM144.958 75.28L146.622 79.9949L146.743 79.9522L146.862 79.9034L144.958 75.28ZM146.958 73.68L151.216 76.3005L151.259 76.2313L151.299 76.1607L146.958 73.68ZM146.238 68.8L143.703 73.1097L143.8 73.1665L143.899 73.2189L146.238 68.8ZM142.638 67.44L141.383 72.28L141.404 72.2854L141.425 72.2907L142.638 67.44ZM137.758 66.24L136.479 71.0735L136.546 71.0912L136.613 71.1071L137.758 66.24ZM132.398 64.4L134.351 59.7971L134.303 59.7769L134.255 59.7576L132.398 64.4ZM129.278 62.8L131.948 58.5726V58.5726L129.278 62.8ZM126.398 60.64L122.863 64.1755L122.973 64.2859L123.09 64.3892L126.398 60.64ZM124.158 57.68L119.769 60.0743L119.792 60.1177L119.817 60.1607L124.158 57.68ZM122.638 53.76L117.757 54.8447L117.776 54.9301L117.798 55.0148L122.638 53.76ZM124.558 40.16L120.358 37.4474L120.338 37.4785L120.318 37.51L124.558 40.16ZM131.278 34.08L128.977 29.6412L128.96 29.6501L128.943 29.659L131.278 34.08ZM147.758 32.48L146.644 37.3543L146.644 37.3543L147.758 32.48ZM152.318 34L150.082 38.4721L150.121 38.4917L150.161 38.5107L152.318 34ZM155.118 35.68L151.917 39.5211L152.016 39.6031L152.118 39.68L155.118 35.68ZM156.318 36.64L152.783 40.1755L152.867 40.2597L152.955 40.3397L156.318 36.64ZM159.198 40.8L154.244 41.4756L154.246 41.4913L154.248 41.5071L159.198 40.8ZM157.278 45.68L161.379 48.5409L161.401 48.5093L161.422 48.4774L157.278 45.68ZM152.558 49.6L153.408 54.5273L153.49 54.5132L153.571 54.4963L152.558 49.6ZM147.198 48.08L144.198 52.08L144.359 52.2003L144.528 52.3074L147.198 48.08ZM145.918 47.04L142.383 50.5755L142.5 50.6932L142.626 50.8029L145.918 47.04ZM144.158 46L142.063 50.5398L142.266 50.6335L142.476 50.7087L144.158 46ZM139.358 45.84L140.795 50.6291L141.008 50.5651L141.215 50.4824L139.358 45.84ZM137.998 46.56L140.904 50.6287L141.084 50.5002L141.252 50.3563L137.998 46.56ZM137.038 47.6L132.798 44.95L132.672 45.1515L132.566 45.3639L137.038 47.6ZM137.998 51.6L134.998 55.6L135.081 55.6618L135.165 55.7202L137.998 51.6ZM141.358 52.96L140.234 57.832L140.254 57.8365L140.273 57.8409L141.358 52.96ZM146.078 53.92L147 49.0056L146.078 53.92ZM151.278 55.2L152.859 50.4566L152.794 50.4348L152.728 50.4149L151.278 55.2ZM155.438 57.04L157.881 52.6775L155.438 57.04ZM158.958 59.92L162.742 56.6519V56.6519L158.958 59.92ZM161.358 64.32L156.615 65.9011L156.644 65.9889L156.676 66.0756L161.358 64.32ZM160.318 79.52L164.689 81.9482L164.7 81.9279L164.711 81.9076L160.318 79.52ZM155.118 85.36L157.964 89.471L157.975 89.4636L157.985 89.4562L155.118 85.36ZM148.398 88.48L147.11 83.6488L147.045 83.666L146.981 83.6849L148.398 88.48ZM141.758 84.52C138.887 84.52 136.703 84.1636 135.085 83.599L131.791 93.041C134.76 94.0764 138.122 94.52 141.758 94.52V84.52ZM135.12 83.6113C133.201 82.9261 131.834 82.1984 130.894 81.5022L124.942 89.5378C126.882 90.975 129.195 92.1139 131.756 93.0287L135.12 83.6113ZM130.988 81.5732C129.698 80.5698 128.919 79.8129 128.498 79.3015L120.778 85.6585C121.851 86.9605 123.259 88.2302 124.848 89.4668L130.988 81.5732ZM128.498 79.3015C128.129 78.8531 127.838 78.4985 127.624 78.234C127.517 78.1017 127.433 77.9972 127.371 77.918C127.303 77.8324 127.277 77.799 127.278 77.8L119.278 83.8C119.523 84.1262 120.063 84.7903 120.778 85.6585L128.498 79.3015ZM127.182 77.6765C126.342 76.6258 126.151 76.0777 126.129 75.9873L116.427 78.4127C116.938 80.4557 118.081 82.3075 119.374 83.9235L127.182 77.6765ZM126.181 76.2194C126.183 76.2292 126.186 76.2487 126.187 76.275C126.187 76.3014 126.185 76.3247 126.183 76.3417C126.18 76.3583 126.178 76.3603 126.183 76.3454C126.188 76.3301 126.201 76.2938 126.23 76.2361L117.286 71.7639C116.306 73.7234 115.923 75.9172 116.375 78.1806L126.181 76.2194ZM126.139 76.4096C126.391 75.9527 126.964 75.1783 128.101 74.0869L121.175 66.8731C119.646 68.3417 118.299 69.914 117.377 71.5904L126.139 76.4096ZM128.094 74.0932C128.456 73.7473 128.699 73.5917 128.811 73.5318C128.912 73.4779 128.864 73.5237 128.691 73.5395L127.785 63.5805C125.082 63.8263 122.876 65.2466 121.182 66.8668L128.094 74.0932ZM128.914 73.5141C128.932 73.5117 128.94 73.512 128.941 73.512C128.942 73.5121 128.945 73.5121 128.954 73.514C128.967 73.5167 129.046 73.5344 129.197 73.6212L134.159 64.9388C132.174 63.8043 129.926 63.2836 127.563 63.6058L128.914 73.5141ZM129.284 73.6695C129.836 73.9707 130.507 74.4888 131.265 75.3609L138.811 68.7991C137.436 67.2179 135.867 65.8693 134.072 64.8905L129.284 73.6695ZM131.301 75.4018C132.69 76.9645 134.197 78.4169 135.783 79.3497L140.853 70.7303C140.626 70.5965 139.946 70.0755 138.775 68.7582L131.301 75.4018ZM135.979 79.4589C137.704 80.3722 139.567 80.76 141.438 80.76V70.76C140.962 70.76 140.746 70.6678 140.658 70.6211L135.979 79.4589ZM141.438 80.76C143.191 80.76 144.985 80.5728 146.622 79.9949L143.294 70.565C143.118 70.6272 142.565 70.76 141.438 70.76V80.76ZM146.862 79.9034C148.541 79.212 150.131 78.0649 151.216 76.3005L142.7 71.0595C142.803 70.8926 142.921 70.7708 143.015 70.6957C143.102 70.6258 143.133 70.6243 143.054 70.6566L146.862 79.9034ZM151.299 76.1607C152.269 74.4635 152.598 72.6139 152.598 70.88H142.598C142.598 71.3861 142.5 71.4032 142.617 71.1993L151.299 76.1607ZM152.598 70.88C152.598 69.5503 152.252 68.1804 151.443 66.9438C150.655 65.7393 149.602 64.9237 148.578 64.3811L143.899 73.2189C143.78 73.1563 143.407 72.9274 143.073 72.4162C142.718 71.873 142.598 71.303 142.598 70.88H152.598ZM148.773 64.4903C147.311 63.6303 145.615 63.0302 143.851 62.5893L141.425 72.2907C142.648 72.5965 143.352 72.903 143.703 73.1097L148.773 64.4903ZM143.893 62.6C142.409 62.2152 140.745 61.8062 138.903 61.3729L136.613 71.1071C138.398 71.5272 139.987 71.9181 141.383 72.28L143.893 62.6ZM139.038 61.4065C137.458 60.9884 135.896 60.4528 134.351 59.7971L130.445 69.0029C132.42 69.8406 134.431 70.5316 136.479 71.0735L139.038 61.4065ZM134.255 59.7576C133.483 59.449 132.715 59.0568 131.948 58.5726L126.608 67.0274C127.868 67.8232 129.179 68.4977 130.541 69.0424L134.255 59.7576ZM131.948 58.5726C131.162 58.076 130.415 57.5162 129.706 56.8908L123.09 64.3892C124.195 65.3638 125.368 66.244 126.608 67.0274L131.948 58.5726ZM129.934 57.1045C129.415 56.5862 128.934 55.9599 128.499 55.1993L119.817 60.1607C120.662 61.6401 121.674 62.9871 122.863 64.1755L129.934 57.1045ZM128.548 55.2857C128.125 54.5102 127.76 53.5924 127.478 52.5052L117.798 55.0148C118.263 56.8076 118.912 58.5031 119.769 60.0743L128.548 55.2857ZM127.519 52.6753C127.294 51.6616 127.158 50.4081 127.158 48.88H117.158C117.158 50.9785 117.342 52.9784 117.757 54.8447L127.519 52.6753ZM127.158 48.88C127.158 46.488 127.733 44.5135 128.798 42.81L120.318 37.51C118.183 40.9265 117.158 44.7653 117.158 48.88H127.158ZM128.758 42.8726C129.924 41.0682 131.506 39.6144 133.614 38.501L128.943 29.659C125.397 31.5323 122.499 34.1318 120.358 37.4474L128.758 42.8726ZM133.58 38.5188C135.668 37.4359 138.117 36.84 141.038 36.84V26.84C136.706 26.84 132.648 27.7375 128.977 29.6412L133.58 38.5188ZM141.038 36.84C143.402 36.84 145.248 37.0352 146.644 37.3543L148.872 27.6057C146.535 27.0715 143.901 26.84 141.038 26.84V36.84ZM146.644 37.3543C148.283 37.7288 149.387 38.1248 150.082 38.4721L154.554 29.5279C152.902 28.7018 150.967 28.0845 148.872 27.6057L146.644 37.3543ZM150.161 38.5107C151.217 39.0157 151.732 39.3669 151.917 39.5211L158.319 31.8389C157.224 30.9264 155.873 30.1576 154.475 29.4893L150.161 38.5107ZM152.118 39.68C152.417 39.904 152.631 40.0696 152.775 40.1843C152.846 40.2415 152.885 40.274 152.899 40.2863C152.924 40.3077 152.871 40.2642 152.783 40.1755L159.854 33.1045C159.391 32.642 158.676 32.0983 158.118 31.68L152.118 39.68ZM152.955 40.3397C153.659 40.9796 154.051 41.4428 154.247 41.726C154.457 42.0289 154.306 41.9281 154.244 41.4756L164.152 40.1244C163.737 37.0791 161.569 34.6565 159.681 32.9403L152.955 40.3397ZM154.248 41.5071C154.199 41.1618 154.232 40.9335 154.243 40.8743C154.253 40.8149 154.252 40.8609 154.185 41.0294C154.046 41.3843 153.736 41.9908 153.134 42.8826L161.422 48.4774C162.26 47.2358 162.991 45.9623 163.491 44.6906C163.97 43.4728 164.4 41.8547 164.148 40.0929L154.248 41.5071ZM153.177 42.8191C152.547 43.7227 152.045 44.2497 151.704 44.5336C151.367 44.8132 151.314 44.7514 151.545 44.7037L153.571 54.4963C157.035 53.7796 159.562 51.1452 161.379 48.5409L153.177 42.8191ZM151.709 44.6727C151.885 44.6422 151.382 44.8085 149.868 43.8526L144.528 52.3074C147.068 53.9115 150.138 55.0911 153.408 54.5273L151.709 44.6727ZM150.198 44.08C149.878 43.8399 149.549 43.5729 149.211 43.2771L142.626 50.8029C143.141 51.2538 143.665 51.6801 144.198 52.08L150.198 44.08ZM149.454 43.5045C148.366 42.417 147.074 41.7321 145.84 41.2913L142.476 50.7087C142.598 50.752 142.635 50.7768 142.614 50.7646C142.592 50.7513 142.502 50.6946 142.383 50.5755L149.454 43.5045ZM146.253 41.4602C144.55 40.6741 142.592 40.52 140.958 40.52V50.52C141.507 50.52 141.874 50.5514 142.096 50.5847C142.338 50.6209 142.282 50.6411 142.063 50.5398L146.253 41.4602ZM140.958 40.52C139.741 40.52 138.579 40.7664 137.501 41.1976L141.215 50.4824C141.214 50.4828 141.188 50.4931 141.139 50.5029C141.089 50.5129 141.027 50.52 140.958 50.52V40.52ZM137.921 41.0509C136.808 41.3848 135.713 41.9331 134.744 42.7637L141.252 50.3563C141.03 50.5469 140.841 50.6152 140.795 50.6291L137.921 41.0509ZM135.092 42.4913C134.136 43.1742 133.378 44.0216 132.798 44.95L141.278 50.25C141.231 50.3251 141.114 50.4791 140.904 50.6287L135.092 42.4913ZM132.566 45.3639C132.003 46.4894 131.718 47.7088 131.718 48.96H141.718C141.718 49.2512 141.646 49.564 141.51 49.8361L132.566 45.3639ZM131.718 48.96C131.718 51.5618 132.814 53.9619 134.998 55.6L140.998 47.6C141.15 47.7139 141.372 47.9381 141.537 48.2786C141.698 48.611 141.718 48.8743 141.718 48.96H131.718ZM135.165 55.7202C136.69 56.7685 138.449 57.4201 140.234 57.832L142.482 48.088C141.494 47.8599 141.013 47.6049 140.831 47.4798L135.165 55.7202ZM140.273 57.8409C141.776 58.1749 143.405 58.5059 145.157 58.8344L147 49.0056C145.338 48.6941 143.82 48.3851 142.443 48.0791L140.273 57.8409ZM145.157 58.8344C146.675 59.119 148.232 59.5014 149.828 59.9851L152.728 50.4149C150.805 49.832 148.895 49.361 147 49.0056L145.157 58.8344ZM149.697 59.9434C150.836 60.3232 151.935 60.8086 152.995 61.4025L157.881 52.6775C156.275 51.778 154.6 51.0368 152.859 50.4566L149.697 59.9434ZM152.995 61.4025C153.814 61.861 154.535 62.4483 155.174 63.1881L162.742 56.6519C161.355 55.0451 159.729 53.7124 157.881 52.6775L152.995 61.4025ZM155.174 63.1881C155.685 63.7802 156.195 64.6414 156.615 65.9011L166.102 62.7389C165.348 60.4785 164.258 58.4065 162.742 56.6519L155.174 63.1881ZM156.676 66.0756C157.043 67.0536 157.318 68.5236 157.318 70.64H167.318C167.318 67.7431 166.953 64.9998 166.04 62.5644L156.676 66.0756ZM157.318 70.64C157.318 73.4711 156.775 75.5684 155.925 77.1324L164.711 81.9076C166.528 78.5649 167.318 74.7422 167.318 70.64H157.318ZM155.947 77.0918C154.962 78.8659 153.729 80.2289 152.251 81.2638L157.985 89.4562C160.774 87.5044 163.008 84.9741 164.689 81.9482L155.947 77.0918ZM152.272 81.249C150.657 82.3672 148.943 83.1601 147.11 83.6488L149.686 93.3112C152.654 92.5199 155.419 91.2328 157.964 89.471L152.272 81.249ZM146.981 83.6849C145.016 84.2656 143.283 84.52 141.758 84.52V94.52C144.394 94.52 147.087 94.081 149.815 93.2751L146.981 83.6849Z" fill="white"/>
</g>
<defs>
<filter id="filter0_d_17_107" x="44" y="0" width="25" height="30" filterUnits="userSpaceOnUse" color-interpolation-filters="sRGB">
<feFlood flood-opacity="0" result="BackgroundImageFix"/>
<feColorMatrix in="SourceAlpha" type="matrix" values="0 0 0 0 0 0 0 0 0 0 0 0 0 0 0 0 0 0 127 0" result="hardAlpha"/>
<feOffset dy="5"/>
<feComposite in2="hardAlpha" operator="out"/>
<feColorMatrix type="matrix" values="0 0 0 0 0.841667 0 0 0 0 0.841667 0 0 0 0 0.841667 0 0 0 1 0"/>
<feBlend mode="normal" in2="BackgroundImageFix" result="effect1_dropShadow_17_107"/>
<feBlend mode="normal" in="SourceGraphic" in2="effect1_dropShadow_17_107" result="shape"/>
</filter>
<filter id="filter1_d_17_107" x="78" y="0" width="25" height="30" filterUnits="userSpaceOnUse" color-interpolation-filters="sRGB">
<feFlood flood-opacity="0" result="BackgroundImageFix"/>
<feColorMatrix in="SourceAlpha" type="matrix" values="0 0 0 0 0 0 0 0 0 0 0 0 0 0 0 0 0 0 127 0" result="hardAlpha"/>
<feOffset dy="5"/>
<feComposite in2="hardAlpha" operator="out"/>
<feColorMatrix type="matrix" values="0 0 0 0 0.841667 0 0 0 0 0.841667 0 0 0 0 0.841667 0 0 0 1 0"/>
<feBlend mode="normal" in2="BackgroundImageFix" result="effect1_dropShadow_17_107"/>
<feBlend mode="normal" in="SourceGraphic" in2="effect1_dropShadow_17_107" result="shape"/>
</filter>
<filter id="filter2_d_17_107" x="3.20001" y="31.6" width="159.118" height="63.24" filterUnits="userSpaceOnUse" color-interpolation-filters="sRGB">
<feFlood flood-opacity="0" result="BackgroundImageFix"/>
<feColorMatrix in="SourceAlpha" type="matrix" values="0 0 0 0 0 0 0 0 0 0 0 0 0 0 0 0 0 0 127 0" result="hardAlpha"/>
<feOffset dy="5"/>
<feComposite in2="hardAlpha" operator="out"/>
<feColorMatrix type="matrix" values="0 0 0 0 0.841667 0 0 0 0 0.841667 0 0 0 0 0.841667 0 0 0 1 0"/>
<feBlend mode="normal" in2="BackgroundImageFix" result="effect1_dropShadow_17_107"/>
<feBlend mode="normal" in="SourceGraphic" in2="effect1_dropShadow_17_107" result="shape"/>
</filter>
</defs>
</svg>
