<svg width="100" height="100" viewBox="0 0 100 100" fill="none" xmlns="http://www.w3.org/2000/svg">
<g clip-path="url(#clip0_106_306)">
<rect width="100" height="100" rx="50" fill="white"/>
<path d="M25 90C25 76.1929 36.1929 65 50 65V65C63.8071 65 75 76.1929 75 90V105H25V90Z" fill="#FFE127"/>
<path d="M43.5 57.5H57.5V65.5C57.5 69.366 54.366 72.5 50.5 72.5C46.634 72.5 43.5 69.366 43.5 65.5V57.5Z" fill="url(#paint0_linear_106_306)" stroke="white"/>
<circle cx="50" cy="37" r="25" fill="#FFBDAA"/>
<path d="M75 37C75 33.717 74.3534 30.4661 73.097 27.4329C71.8406 24.3998 69.9991 21.6438 67.6777 19.3223C65.3562 17.0009 62.6002 15.1594 59.5671 13.903C56.5339 12.6466 53.283 12 50 12C46.717 12 43.4661 12.6466 40.4329 13.903C37.3998 15.1594 34.6438 17.0009 32.3223 19.3223C30.0009 21.6438 28.1594 24.3998 26.903 27.4329C25.6466 30.4661 25 33.717 25 37L50 37H75Z" fill="#2F2F2F"/>
<path d="M50 32L52.5981 40.25H47.4019L50 32Z" fill="#FFBDAA"/>
<path d="M53 32L55.5981 40.25H50.4019L53 32Z" fill="#FFBDAA"/>
<path d="M47 32L49.5981 40.25H44.4019L47 32Z" fill="#FFBDAA"/>
<path d="M47.2808 8.27556L50.6822 15.8415L49.0369 16.3829L47.2808 8.27556Z" fill="#2F2F2F"/>
<path d="M50.7192 8.27556L47.3178 15.8415L48.9631 16.3829L50.7192 8.27556Z" fill="#2F2F2F"/>
<path d="M44 32L46.5981 40.25H41.4019L44 32Z" fill="#FFBDAA"/>
<path d="M41 32L43.5981 40.25H38.4019L41 32Z" fill="#FFBDAA"/>
<path d="M38 32L40.5981 40.25H35.4019L38 32Z" fill="#FFBDAA"/>
<path d="M35 32L37.5981 40.25H32.4019L35 32Z" fill="#FFBDAA"/>
<path d="M32 32L34.5981 40.25H29.4019L32 32Z" fill="#FFBDAA"/>
<path d="M29 32L31.5981 40.25H26.4019L29 32Z" fill="#FFBDAA"/>
<path d="M25.5 32L28.5981 40.25H25.149C24.8278 36.8233 24.979 35.0505 25.5 32Z" fill="#FFBDAA"/>
<path d="M56 32L58.5981 40.25H53.4019L56 32Z" fill="#FFBDAA"/>
<path d="M59 32L61.5981 40.25H56.4019L59 32Z" fill="#FFBDAA"/>
<path d="M62 32L64.5981 40.25H59.4019L62 32Z" fill="#FFBDAA"/>
<path d="M65 32L67.5981 40.25H62.4019L65 32Z" fill="#FFBDAA"/>
<path d="M68 32L70.5981 40.25H65.4019L68 32Z" fill="#FFBDAA"/>
<path d="M71 32L73.5981 40.25H68.4019L71 32Z" fill="#FFBDAA"/>
<path d="M74.5 32C75.0813 35.2607 75.1148 37.0622 74.8263 40.25H71.4019L74.5 32Z" fill="#FFBDAA"/>
<circle cx="38" cy="43" r="3" fill="#373737"/>
<path d="M46 53C46 54.0609 46.4214 55.0783 47.1716 55.8284C47.9217 56.5786 48.9391 57 50 57C51.0609 57 52.0783 56.5786 52.8284 55.8284C53.5786 55.0783 54 54.0609 54 53L52.858 53C52.858 53.758 52.5569 54.4849 52.0209 55.0209C51.4849 55.5569 50.758 55.858 50 55.858C49.242 55.858 48.5151 55.5569 47.9791 55.0209C47.4431 54.4849 47.142 53.758 47.142 53H46Z" fill="#373737"/>
<circle cx="62" cy="43" r="3" fill="#373737"/>
</g>
<rect x="0.5" y="0.5" width="99" height="99" rx="49.5" stroke="#D7D7D7"/>
<defs>
<linearGradient id="paint0_linear_106_306" x1="50.5" y1="57" x2="50.5" y2="73" gradientUnits="userSpaceOnUse">
<stop stop-color="#FFAC94"/>
<stop offset="1" stop-color="#FFBDAA"/>
</linearGradient>
<clipPath id="clip0_106_306">
<rect width="100" height="100" rx="50" fill="white"/>
</clipPath>
</defs>
</svg>
