<svg width="100" height="100" viewBox="0 0 100 100" fill="none" xmlns="http://www.w3.org/2000/svg">
<g clip-path="url(#clip0_106_382)">
<rect width="100" height="100" rx="50" fill="white"/>
<path d="M23 38C23 26.9543 31.9543 18 43 18H57C68.0457 18 77 26.9543 77 38V57C77 59.7614 74.7614 62 72 62H28C25.2386 62 23 59.7614 23 57V38Z" fill="#2F1108"/>
<path d="M25 90C25 76.1929 36.1929 65 50 65V65C63.8071 65 75 76.1929 75 90V105H25V90Z" fill="#FF7F87"/>
<path d="M58 65.5C58 66.6162 57.7801 67.7215 57.353 68.7528C56.9258 69.7841 56.2997 70.7211 55.5104 71.5104C54.7211 72.2997 53.7841 72.9258 52.7528 73.353C51.7215 73.7801 50.6162 74 49.5 74C48.3838 74 47.2785 73.7801 46.2472 73.353C45.2159 72.9258 44.2789 72.2997 43.4896 71.5104C42.7003 70.7211 42.0742 69.7841 41.647 68.7528C41.2199 67.7215 41 66.6162 41 65.5L42.6987 65.5C42.6987 66.3932 42.8746 67.2776 43.2164 68.1027C43.5582 68.9279 44.0592 69.6777 44.6907 70.3093C45.3223 70.9408 46.0721 71.4418 46.8973 71.7836C47.7224 72.1254 48.6068 72.3013 49.5 72.3013C50.3932 72.3013 51.2776 72.1254 52.1027 71.7836C52.9279 71.4418 53.6777 70.9408 54.3093 70.3093C54.9408 69.6777 55.4418 68.9279 55.7836 68.1027C56.1254 67.2776 56.3013 66.3932 56.3013 65.5H58Z" fill="white"/>
<path d="M42 57H57V65.5C57 69.6421 53.6421 73 49.5 73V73C45.3579 73 42 69.6421 42 65.5V57Z" fill="url(#paint0_linear_106_382)"/>
<path d="M49 74H50V89.5C50 89.7761 49.7761 90 49.5 90V90C49.2239 90 49 89.7761 49 89.5V74Z" fill="white"/>
<path d="M48 76.5C48 75.6716 48.6716 75 49.5 75V75C50.3284 75 51 75.6716 51 76.5V76.5C51 77.3284 50.3284 78 49.5 78V78C48.6716 78 48 77.3284 48 76.5V76.5Z" fill="white"/>
<path d="M48 80.5C48 79.6716 48.6716 79 49.5 79V79C50.3284 79 51 79.6716 51 80.5V80.5C51 81.3284 50.3284 82 49.5 82V82C48.6716 82 48 81.3284 48 80.5V80.5Z" fill="white"/>
<path d="M48 84.5C48 83.6716 48.6716 83 49.5 83V83C50.3284 83 51 83.6716 51 84.5V84.5C51 85.3284 50.3284 86 49.5 86V86C48.6716 86 48 85.3284 48 84.5V84.5Z" fill="white"/>
<path d="M48 88.5C48 87.6716 48.6716 87 49.5 87V87C50.3284 87 51 87.6716 51 88.5V88.5C51 89.3284 50.3284 90 49.5 90V90C48.6716 90 48 89.3284 48 88.5V88.5Z" fill="white"/>
<circle cx="50" cy="37" r="25" fill="#FFBDAA"/>
<path d="M77 37C77 33 76.3016 30.4661 74.9448 27.4329C73.5879 24.3998 71.5991 21.6438 69.0919 19.3223C66.5847 17.0009 63.6082 15.1594 60.3325 13.903C57.0567 12.6466 53.5457 12 50 12C46.4543 12 42.9433 12.6466 39.6675 13.903C36.3918 15.1594 33.4153 17.0009 30.9081 19.3223C28.4009 21.6438 26.4121 24.3998 25.0553 27.4329C23.6984 30.4661 23 33.717 23 37C24.1949 38.4836 54 13 58.5 25C63 37 77 41 77 37Z" fill="#2F1108"/>
<circle cx="38" cy="43" r="3" fill="#373737"/>
<path d="M46 53C46 54.0609 46.4214 55.0783 47.1716 55.8284C47.9217 56.5786 48.9391 57 50 57C51.0609 57 52.0783 56.5786 52.8284 55.8284C53.5786 55.0783 54 54.0609 54 53L52.858 53C52.858 53.758 52.5569 54.4849 52.0209 55.0209C51.4849 55.5569 50.758 55.858 50 55.858C49.242 55.858 48.5151 55.5569 47.9791 55.0209C47.4431 54.4849 47.142 53.758 47.142 53H46Z" fill="#373737"/>
<circle cx="62" cy="43" r="3" fill="#373737"/>
<path d="M24 37.5C34.1667 36 55.9 30.5 57.5 22.5" stroke="#2F1108"/>
<path d="M24 34.5L55 18L57.5 23C53.3745 29.6616 45.4286 32.8921 24 38V34.5Z" fill="#2F1108"/>
</g>
<rect x="0.5" y="0.5" width="99" height="99" rx="49.5" stroke="#D7D7D7"/>
<defs>
<linearGradient id="paint0_linear_106_382" x1="49.5" y1="57" x2="49.5" y2="73" gradientUnits="userSpaceOnUse">
<stop stop-color="#FFAC94"/>
<stop offset="1" stop-color="#FFBDAA"/>
</linearGradient>
<clipPath id="clip0_106_382">
<rect width="100" height="100" rx="50" fill="white"/>
</clipPath>
</defs>
</svg>
