<svg width="100" height="100" viewBox="0 0 100 100" fill="none" xmlns="http://www.w3.org/2000/svg">
<g clip-path="url(#clip0_106_99)">
<rect width="100" height="100" rx="50" fill="white"/>
<circle cx="25.5" cy="41.5" r="2.5" fill="#373737"/>
<circle cx="23.5" cy="38.5" r="2.5" fill="#373737"/>
<circle cx="22.5" cy="35.5" r="2.5" fill="#373737"/>
<circle cx="22.5" cy="31.5" r="2.5" fill="#373737"/>
<circle cx="22.5" cy="27.5" r="2.5" fill="#373737"/>
<circle cx="23.5" cy="24.5" r="2.5" fill="#373737"/>
<circle cx="25.5" cy="21.5" r="2.5" fill="#373737"/>
<circle cx="27.5" cy="18.5" r="2.5" fill="#373737"/>
<circle cx="30.5" cy="16.5" r="2.5" fill="#373737"/>
<circle cx="33.5" cy="14.5" r="2.5" fill="#373737"/>
<circle cx="35.5" cy="12.5" r="2.5" fill="#373737"/>
<circle cx="38.5" cy="10.5" r="2.5" fill="#373737"/>
<circle cx="41.5" cy="9.5" r="2.5" fill="#373737"/>
<circle cx="45.5" cy="8.5" r="2.5" fill="#373737"/>
<circle cx="48.5" cy="7.5" r="2.5" fill="#373737"/>
<circle cx="48.5" cy="9.5" r="2.5" fill="#373737"/>
<circle cx="39.5" cy="12.5" r="2.5" fill="#373737"/>
<circle cx="30.5" cy="18.5" r="2.5" fill="#373737"/>
<circle cx="28.5" cy="22.5" r="2.5" fill="#373737"/>
<circle cx="26.5" cy="26.5" r="2.5" fill="#373737"/>
<circle cx="24.5" cy="30.5" r="2.5" fill="#373737"/>
<circle cx="25.5" cy="24.5" r="2.5" fill="#373737"/>
<circle cx="25.5" cy="32.5" r="2.5" fill="#373737"/>
<circle cx="43.5" cy="8.5" r="2.5" fill="#373737"/>
<circle cx="51.5" cy="8.5" r="2.5" fill="#373737"/>
<circle cx="55.5" cy="9.5" r="2.5" fill="#373737"/>
<circle cx="58.5" cy="10.5" r="2.5" fill="#373737"/>
<circle cx="61.5" cy="12.5" r="2.5" fill="#373737"/>
<circle cx="64.5" cy="14.5" r="2.5" fill="#373737"/>
<circle cx="67.5" cy="15.5" r="2.5" fill="#373737"/>
<circle cx="69.5" cy="17.5" r="2.5" fill="#373737"/>
<circle cx="70.5" cy="19.5" r="2.5" fill="#373737"/>
<circle cx="72.5" cy="21.5" r="2.5" fill="#373737"/>
<circle cx="74.5" cy="23.5" r="2.5" fill="#373737"/>
<circle cx="75.5" cy="26.5" r="2.5" fill="#373737"/>
<circle cx="76.5" cy="29.5" r="2.5" fill="#373737"/>
<circle cx="76.5" cy="32.5" r="2.5" fill="#373737"/>
<circle cx="76.5" cy="35.5" r="2.5" fill="#373737"/>
<circle cx="76.5" cy="38.5" r="2.5" fill="#373737"/>
<circle cx="75.5" cy="41.5" r="2.5" fill="#373737"/>
<path d="M25 90C25 76.1929 36.1929 65 50 65V65C63.8071 65 75 76.1929 75 90V105H25V90Z" fill="#B864B0"/>
<path d="M43.5 57.5H57.5V65.5C57.5 69.366 54.366 72.5 50.5 72.5C46.634 72.5 43.5 69.366 43.5 65.5V57.5Z" fill="url(#paint0_linear_106_99)" stroke="white"/>
<path d="M49 72H51V99C51 99.5523 50.5523 100 50 100V100C49.4477 100 49 99.5523 49 99V72Z" fill="white"/>
<circle cx="50" cy="37" r="25" fill="#FFBDAA"/>
<path d="M75 35C75 31.717 74.3534 28.4661 73.097 25.4329C71.8406 22.3998 69.9991 19.6438 67.6777 17.3223C65.3562 15.0009 62.6002 13.1594 59.5671 11.903C56.5339 10.6466 53.283 10 50 10C46.717 10 43.4661 10.6466 40.4329 11.903C37.3998 13.1594 34.6438 15.0009 32.3223 17.3223C30.0009 19.6438 28.1594 22.3998 26.903 25.4329C25.6466 28.4661 25 31.717 25 35L50 35H75Z" fill="#373737"/>
<path d="M41 43C41 42.2044 40.6839 41.4413 40.1213 40.8787C39.5587 40.3161 38.7956 40 38 40C37.2044 40 36.4413 40.3161 35.8787 40.8787C35.3161 41.4413 35 42.2044 35 43L35.8765 43C35.8765 42.4368 36.1002 41.8967 36.4985 41.4985C36.8967 41.1002 37.4368 40.8765 38 40.8765C38.5632 40.8765 39.1033 41.1002 39.5015 41.4985C39.8998 41.8967 40.1235 42.4368 40.1235 43H41Z" fill="#373737"/>
<path d="M65 43C65 42.2044 64.6839 41.4413 64.1213 40.8787C63.5587 40.3161 62.7956 40 62 40C61.2044 40 60.4413 40.3161 59.8787 40.8787C59.3161 41.4413 59 42.2044 59 43L59.8765 43C59.8765 42.4368 60.1002 41.8967 60.4985 41.4985C60.8967 41.1002 61.4368 40.8765 62 40.8765C62.5632 40.8765 63.1033 41.1002 63.5015 41.4985C63.8998 41.8967 64.1235 42.4368 64.1235 43H65Z" fill="#373737"/>
<path d="M46 53C46 54.0609 46.4214 55.0783 47.1716 55.8284C47.9217 56.5786 48.9391 57 50 57C51.0609 57 52.0783 56.5786 52.8284 55.8284C53.5786 55.0783 54 54.0609 54 53L52.858 53C52.858 53.758 52.5569 54.4849 52.0209 55.0209C51.4849 55.5569 50.758 55.858 50 55.858C49.242 55.858 48.5151 55.5569 47.9791 55.0209C47.4431 54.4849 47.142 53.758 47.142 53H46Z" fill="#373737"/>
<circle cx="26.5" cy="39.5" r="2.5" fill="#373737"/>
<circle cx="27.5" cy="37.5" r="2.5" fill="#373737"/>
<circle cx="29.5" cy="34.5" r="2.5" fill="#373737"/>
<circle cx="33.5" cy="33.5" r="2.5" fill="#373737"/>
<circle cx="36.5" cy="33.5" r="2.5" fill="#373737"/>
<circle cx="39.5" cy="33.5" r="2.5" fill="#373737"/>
<circle cx="42.5" cy="33.5" r="2.5" fill="#373737"/>
<circle cx="45.5" cy="33.5" r="2.5" fill="#373737"/>
<circle cx="48.5" cy="33.5" r="2.5" fill="#373737"/>
<circle cx="51.5" cy="33.5" r="2.5" fill="#373737"/>
<circle cx="54.5" cy="33.5" r="2.5" fill="#373737"/>
<circle cx="57.5" cy="33.5" r="2.5" fill="#373737"/>
<circle cx="60.5" cy="33.5" r="2.5" fill="#373737"/>
<circle cx="63.5" cy="33.5" r="2.5" fill="#373737"/>
<circle cx="66.5" cy="33.5" r="2.5" fill="#373737"/>
<circle cx="69.5" cy="33.5" r="2.5" fill="#373737"/>
<circle cx="74.5" cy="41.5" r="2.5" fill="#373737"/>
<circle cx="73.5" cy="37.5" r="2.5" fill="#373737"/>
<circle cx="72.5" cy="35.5" r="2.5" fill="#373737"/>
<circle cx="26.5" cy="35.5" r="2.5" fill="#373737"/>
</g>
<rect x="0.5" y="0.5" width="99" height="99" rx="49.5" stroke="#D7D7D7"/>
<defs>
<linearGradient id="paint0_linear_106_99" x1="50.5" y1="57" x2="50.5" y2="73" gradientUnits="userSpaceOnUse">
<stop stop-color="#FFAD95"/>
<stop offset="0.440625" stop-color="#FFA388"/>
<stop offset="1" stop-color="#FFBDAA"/>
</linearGradient>
<clipPath id="clip0_106_99">
<rect width="100" height="100" rx="50" fill="white"/>
</clipPath>
</defs>
</svg>
