<svg width="100" height="100" viewBox="0 0 100 100" fill="none" xmlns="http://www.w3.org/2000/svg">
<g clip-path="url(#clip0_106_261)">
<rect width="100" height="100" rx="50" fill="white"/>
<path d="M25 90C25 76.1929 36.1929 65 50 65V65C63.8071 65 75 76.1929 75 90V105H25V90Z" fill="#4660B7"/>
<path d="M23 35C23 23.9543 31.9543 15 43 15H57C68.0457 15 77 23.9543 77 35V60C77 62.7614 74.7614 65 72 65H28C25.2386 65 23 62.7614 23 60V35Z" fill="#2F1108"/>
<path d="M59 65.5C59 66.6162 58.7801 67.7215 58.353 68.7528C57.9258 69.7841 57.2997 70.7211 56.5104 71.5104C55.7211 72.2997 54.7841 72.9258 53.7528 73.353C52.7215 73.7801 51.6162 74 50.5 74C49.3838 74 48.2785 73.7801 47.2472 73.353C46.2159 72.9258 45.2789 72.2997 44.4896 71.5104C43.7003 70.7211 43.0742 69.7841 42.647 68.7528C42.2199 67.7215 42 66.6162 42 65.5L43.6987 65.5C43.6987 66.3932 43.8746 67.2776 44.2164 68.1027C44.5582 68.9279 45.0592 69.6777 45.6907 70.3093C46.3223 70.9408 47.0721 71.4418 47.8973 71.7836C48.7224 72.1254 49.6068 72.3013 50.5 72.3013C51.3932 72.3013 52.2776 72.1254 53.1027 71.7836C53.9279 71.4418 54.6777 70.9408 55.3093 70.3093C55.9408 69.6777 56.4418 68.9279 56.7836 68.1027C57.1254 67.2776 57.3013 66.3932 57.3013 65.5H59Z" fill="white"/>
<path d="M43 60H58V65.5C58 69.6421 54.6421 73 50.5 73V73C46.3579 73 43 69.6421 43 65.5V60Z" fill="url(#paint0_linear_106_261)"/>
<circle cx="50" cy="37" r="25" fill="#FFBDAA"/>
<path d="M77 34C77 28.5 76.3016 26.9433 74.9447 23.6675C73.5879 20.3918 71.599 17.4153 69.0919 14.9081C66.5847 12.4009 63.6082 10.4121 60.3324 9.05525C57.0566 7.69838 53.5457 7 50 7C46.4543 7 42.9433 7.69838 39.6675 9.05525C36.3918 10.4121 33.4153 12.4009 30.9081 14.9081C28.4009 17.4153 26.4121 20.3918 25.0552 23.6675C23.6984 26.9433 23 29 23 34C23 39 50 29 50 29C50 29 77 39.5 77 34Z" fill="#2F1108"/>
<path d="M50 22L52.5981 40H47.4019L50 22Z" fill="#FFBDAA"/>
<circle cx="38" cy="43" r="3" fill="#373737"/>
<path d="M46 53C46 54.0609 46.4214 55.0783 47.1716 55.8284C47.9217 56.5786 48.9391 57 50 57C51.0609 57 52.0783 56.5786 52.8284 55.8284C53.5786 55.0783 54 54.0609 54 53L52.858 53C52.858 53.758 52.5569 54.4849 52.0209 55.0209C51.4849 55.5569 50.758 55.858 50 55.858C49.242 55.858 48.5151 55.5569 47.9791 55.0209C47.4431 54.4849 47.142 53.758 47.142 53H46Z" fill="#373737"/>
<circle cx="62" cy="43" r="3" fill="#373737"/>
</g>
<rect x="0.5" y="0.5" width="99" height="99" rx="49.5" stroke="#D7D7D7"/>
<defs>
<linearGradient id="paint0_linear_106_261" x1="50.5" y1="60" x2="50.5" y2="73" gradientUnits="userSpaceOnUse">
<stop stop-color="#FFAC93"/>
<stop offset="1" stop-color="#FFBDAA"/>
</linearGradient>
<clipPath id="clip0_106_261">
<rect width="100" height="100" rx="50" fill="white"/>
</clipPath>
</defs>
</svg>
